<svg xmlns="http://www.w3.org/2000/svg" viewBox="0 0 444 138" width="444" height="138" role="img" aria-label="FoodFolio" xmlns:c2pa="http://c2pa.org/manifest"><metadata><c2pa:manifest>AAAWgmp1bWIAAAAeanVtZGMycGEAEQAQgAAAqgA4m3EDYzJwYQAAABZcanVtYgAAAEdqdW1kYzJtYQARABCAAACqADibcQN1cm46YzJwYTozMzVhZDg0MS0yMTE2LTRkNzgtODc5ZS04ZjUxNTRjODMzN2IAAAADl2p1bWIAAAApanVtZGMyYXMAEQAQgAAAqgA4m3EDYzJwYS5hc3NlcnRpb25zAAAAALxqdW1iAAAARGp1bWRjYm9yABEAEIAAAKoAOJtxE2MycGEuaW5ncmVkaWVudC52MwAAAAAYYzJzaDbOytN8aU7dPl8wwZQt1YwAAABwY2JvcqNpZGM6Zm9ybWF0bWltYWdlL3N2Zyt4bWxqaW5zdGFuY2VJRHgseG1wOmlpZDo4OWM1YjdkZi00YjdhLTRiZTctYWJmYi0zNzBmNWNiYjExODNscmVsYXRpb25zaGlwaHBhcmVudE9mAAAB4mp1bWIAAABBanVtZGNib3IAEQAQgAAAqgA4m3ETYzJwYS5hY3Rpb25zLnYyAAAAABhjMnNoctcWDlU/hmVkYVMrEBUtMAAAAZljYm9yomdhY3Rpb25zgqJmYWN0aW9ua2MycGEub3BlbmVkanBhcmFtZXRlcnOha2luZ3JlZGllbnRzgaJjdXJseC1zZWxmI2p1bWJmPWMycGEuYXNzZXJ0aW9ucy9jMnBhLmluZ3JlZGllbnQudjNkaGFzaFggVbnXx7BZVIhTzEAOVRNjdBc6vAIZZJHaYsZfJ/4arpykZmFjdGlvbngdY29tLmFudGhyb3BpYy5jbGF1ZGUucHJvdmlkZWRqcGFyYW1ldGVyc6F4H2NvbS5hbnRocm9waWMub3JpZ2luLWNvbmZpZGVuY2VndW5rbm93bmtkZXNjcmlwdGlvbnhmQ2xhdWRlIHByb3ZpZGVkIHRoaXMgZmlsZSBhdCB0aGUgcmVxdWVzdCBvZiBhIHVzZXIgYW5kIG1heSBoYXZlIGNyZWF0ZWQgb3IgbW9kaWZpZWQgdGhlIGZpbGUgY29udGVudHMubXNvZnR3YXJlQWdlbnShZG5hbWVmQ2xhdWRlcmFsbEFjdGlvbnNJbmNsdWRlZPUAAADIanVtYgAAAEBqdW1kY2JvcgARABCAAACqADibcRNjMnBhLmhhc2guZGF0YQAAAAAYYzJzaOayvj24fnknaB7uNXbZq8cAAACAY2JvcqVjYWxnZnNoYTI1NmNwYWRNAAAAAAAAAAAAAAAAAGRoYXNoWCB2LHQr/NwddfZRSDEsQ60LcxaR77mhxDP2ytEifbLktGRuYW1lbmp1bWJmIG1hbmlmZXN0amV4Y2x1c2lvbnOBomVzdGFydBi4Zmxlbmd0aBkeBAAAAj5qdW1iAAAAJ2p1bWRjMmNsABEAEIAAAKoAOJtxA2MycGEuY2xhaW0udjIAAAACD2Nib3KlY2FsZ2ZzaGEyNTZpc2lnbmF0dXJleE1zZWxmI2p1bWJmPS9jMnBhL3VybjpjMnBhOjMzNWFkODQxLTIxMTYtNGQ3OC04NzllLThmNTE1NGM4MzM3Yi9jMnBhLnNpZ25hdHVyZWppbnN0YW5jZUlEeCx4bXA6aWlkOmZjYjU5OTM5LWJjNjUtNGExZi1iNDliLWVhMGQ0Y2I0ODE2NXJjcmVhdGVkX2Fzc2VydGlvbnODomN1cmx4LXNlbGYjanVtYmY9YzJwYS5hc3NlcnRpb25zL2MycGEuaW5ncmVkaWVudC52M2RoYXNoWCBVudfHsFlUiFPMQA5VE2N0Fzq8Ahlkkdpixl8n/hqunKJjdXJseCpzZWxmI2p1bWJmPWMycGEuYXNzZXJ0aW9ucy9jMnBhLmFjdGlvbnMudjJkaGFzaFgg3jz1otADcBnMNYGL57uBoi2HWpZQ2CNy1SbVIflTS7OiY3VybHgpc2VsZiNqdW1iZj1jMnBhLmFzc2VydGlvbnMvYzJwYS5oYXNoLmRhdGFkaGFzaFggbzo216drf+H3n7gbPVlkxvoECU0rbnBQnJbnje81pXR0Y2xhaW1fZ2VuZXJhdG9yX2luZm+jZG5hbWVvQW50aHJvcGljIEZpbGVzZ3ZlcnNpb25lMS4wLjBrc3BlY1ZlcnNpb25lMi40LjAAABA4anVtYgAAAChqdW1kYzJjcwARABCAAACqADibcQNjMnBhLnNpZ25hdHVyZQAAABAIY2JvctKEWQISogEmGCFZAgowggIGMIIBjaADAgECAhRA5aAK7sI50L64g/oGQgU9Z1UTADAKBggqhkjOPQQDAzBJMRcwFQYDVQQKEw5BbnRocm9waWMsIFBCQzEuMCwGA1UEAxMlQW50aHJvcGljIENvbnRlbnQgQ3JlZGVudGlhbHMgUm9vdCBDQTAeFw0yNjA4MDcxODQzNTZaFw0yODA4MDYxOTQzNTZaMEQxFzAVBgNVBAoTDkFudGhyb3BpYywgUEJDMSkwJwYDVQQDEyBBbnRocm9waWMgQ2xhdWRlIENvbnRlbnQgU2lnbmluZzBZMBMGByqGSM49AgEGCCqGSM49AwEHA0IABJh6CmvLUBgFFNU0vUKlOVtE6djd17L5SuwX0LemFisBM3dkd/3cyjxFA3Qo5S46fX0/ihY0VZ7mfb9KF703t5OjWDBWMA4GA1UdDwEB/wQEAwIHgDAVBgNVHSUEDjAMBgorBgEEAYPoXgIBMAwGA1UdEwEB/wQCMAAwHwYDVR0jBBgwFoAUzlHiBIFOZFsj+OPEz5o+nMHXXMIwCgYIKoZIzj0EAwMDZwAwZAIwMXMdFJ4BetLLVY7ORuE9noqbbAZOZn/aArXyTwFAZfKrPzxF2vPoJNf1+UCdg1XGAjBwX1zd9WGqYkqmL5SFqw1QySjr1zJfpJM9+1rdDwSPLMOPOjKuiXjoU/pUUeG9RwmhY3BhZFkNngAAAAAAAAAAAAAAAAAAAAAAAAAAAAAAAAAAAAAAAAAAAAAAAAAAAAAAAAAAAAAAAAAAAAAAAAAAAAAAAAAAAAAAAAAAAAAAAAAAAAAAAAAAAAAAAAAAAAAAAAAAAAAAAAAAAAAAAAAAAAAAAAAAAAAAAAAAAAAAAAAAAAAAAAAAAAAAAAAAAAAAAAAAAAAAAAAAAAAAAAAAAAAAAAAAAAAAAAAAAAAAAAAAAAAAAAAAAAAAAAAAAAAAAAAAAAAAAAAAAAAAAAAAAAAAAAAAAAAAAAAAAAAAAAAAAAAAAAAAAAAAAAAAAAAAAAAAAAAAAAAAAAAAAAAAAAAAAAAAAAAAAAAAAAAAAAAAAAAAAAAAAAAAAAAAAAAAAAAAAAAAAAAAAAAAAAAAAAAAAAAAAAAAAAAAAAAAAAAAAAAAAAAAAAAAAAAAAAAAAAAAAAAAAAAAAAAAAAAAAAAAAAAAAAAAAAAAAAAAAAAAAAAAAAAAAAAAAAAAAAAAAAAAAAAAAAAAAAAAAAAAAAAAAAAAAAAAAAAAAAAAAAAAAAAAAAAAAAAAAAAAAAAAAAAAAAAAAAAAAAAAAAAAAAAAAAAAAAAAAAAAAAAAAAAAAAAAAAAAAAAAAAAAAAAAAAAAAAAAAAAAAAAAAAAAAAAAAAAAAAAAAAAAAAAAAAAAAAAAAAAAAAAAAAAAAAAAAAAAAAAAAAAAAAAAAAAAAAAAAAAAAAAAAAAAAAAAAAAAAAAAAAAAAAAAAAAAAAAAAAAAAAAAAAAAAAAAAAAAAAAAAAAAAAAAAAAAAAAAAAAAAAAAAAAAAAAAAAAAAAAAAAAAAAAAAAAAAAAAAAAAAAAAAAAAAAAAAAAAAAAAAAAAAAAAAAAAAAAAAAAAAAAAAAAAAAAAAAAAAAAAAAAAAAAAAAAAAAAAAAAAAAAAAAAAAAAAAAAAAAAAAAAAAAAAAAAAAAAAAAAAAAAAAAAAAAAAAAAAAAAAAAAAAAAAAAAAAAAAAAAAAAAAAAAAAAAAAAAAAAAAAAAAAAAAAAAAAAAAAAAAAAAAAAAAAAAAAAAAAAAAAAAAAAAAAAAAAAAAAAAAAAAAAAAAAAAAAAAAAAAAAAAAAAAAAAAAAAAAAAAAAAAAAAAAAAAAAAAAAAAAAAAAAAAAAAAAAAAAAAAAAAAAAAAAAAAAAAAAAAAAAAAAAAAAAAAAAAAAAAAAAAAAAAAAAAAAAAAAAAAAAAAAAAAAAAAAAAAAAAAAAAAAAAAAAAAAAAAAAAAAAAAAAAAAAAAAAAAAAAAAAAAAAAAAAAAAAAAAAAAAAAAAAAAAAAAAAAAAAAAAAAAAAAAAAAAAAAAAAAAAAAAAAAAAAAAAAAAAAAAAAAAAAAAAAAAAAAAAAAAAAAAAAAAAAAAAAAAAAAAAAAAAAAAAAAAAAAAAAAAAAAAAAAAAAAAAAAAAAAAAAAAAAAAAAAAAAAAAAAAAAAAAAAAAAAAAAAAAAAAAAAAAAAAAAAAAAAAAAAAAAAAAAAAAAAAAAAAAAAAAAAAAAAAAAAAAAAAAAAAAAAAAAAAAAAAAAAAAAAAAAAAAAAAAAAAAAAAAAAAAAAAAAAAAAAAAAAAAAAAAAAAAAAAAAAAAAAAAAAAAAAAAAAAAAAAAAAAAAAAAAAAAAAAAAAAAAAAAAAAAAAAAAAAAAAAAAAAAAAAAAAAAAAAAAAAAAAAAAAAAAAAAAAAAAAAAAAAAAAAAAAAAAAAAAAAAAAAAAAAAAAAAAAAAAAAAAAAAAAAAAAAAAAAAAAAAAAAAAAAAAAAAAAAAAAAAAAAAAAAAAAAAAAAAAAAAAAAAAAAAAAAAAAAAAAAAAAAAAAAAAAAAAAAAAAAAAAAAAAAAAAAAAAAAAAAAAAAAAAAAAAAAAAAAAAAAAAAAAAAAAAAAAAAAAAAAAAAAAAAAAAAAAAAAAAAAAAAAAAAAAAAAAAAAAAAAAAAAAAAAAAAAAAAAAAAAAAAAAAAAAAAAAAAAAAAAAAAAAAAAAAAAAAAAAAAAAAAAAAAAAAAAAAAAAAAAAAAAAAAAAAAAAAAAAAAAAAAAAAAAAAAAAAAAAAAAAAAAAAAAAAAAAAAAAAAAAAAAAAAAAAAAAAAAAAAAAAAAAAAAAAAAAAAAAAAAAAAAAAAAAAAAAAAAAAAAAAAAAAAAAAAAAAAAAAAAAAAAAAAAAAAAAAAAAAAAAAAAAAAAAAAAAAAAAAAAAAAAAAAAAAAAAAAAAAAAAAAAAAAAAAAAAAAAAAAAAAAAAAAAAAAAAAAAAAAAAAAAAAAAAAAAAAAAAAAAAAAAAAAAAAAAAAAAAAAAAAAAAAAAAAAAAAAAAAAAAAAAAAAAAAAAAAAAAAAAAAAAAAAAAAAAAAAAAAAAAAAAAAAAAAAAAAAAAAAAAAAAAAAAAAAAAAAAAAAAAAAAAAAAAAAAAAAAAAAAAAAAAAAAAAAAAAAAAAAAAAAAAAAAAAAAAAAAAAAAAAAAAAAAAAAAAAAAAAAAAAAAAAAAAAAAAAAAAAAAAAAAAAAAAAAAAAAAAAAAAAAAAAAAAAAAAAAAAAAAAAAAAAAAAAAAAAAAAAAAAAAAAAAAAAAAAAAAAAAAAAAAAAAAAAAAAAAAAAAAAAAAAAAAAAAAAAAAAAAAAAAAAAAAAAAAAAAAAAAAAAAAAAAAAAAAAAAAAAAAAAAAAAAAAAAAAAAAAAAAAAAAAAAAAAAAAAAAAAAAAAAAAAAAAAAAAAAAAAAAAAAAAAAAAAAAAAAAAAAAAAAAAAAAAAAAAAAAAAAAAAAAAAAAAAAAAAAAAAAAAAAAAAAAAAAAAAAAAAAAAAAAAAAAAAAAAAAAAAAAAAAAAAAAAAAAAAAAAAAAAAAAAAAAAAAAAAAAAAAAAAAAAAAAAAAAAAAAAAAAAAAAAAAAAAAAAAAAAAAAAAAAAAAAAAAAAAAAAAAAAAAAAAAAAAAAAAAAAAAAAAAAAAAAAAAAAAAAAAAAAAAAAAAAAAAAAAAAAAAAAAAAAAAAAAAAAAAAAAAAAAAAAAAAAAAAAAAAAAAAAAAAAAAAAAAAAAAAAAAAAAAAAAAAAAAAAAAAAAAAAAAAAAAAAAAAAAAAAAAAAAAAAAAAAAAAAAAAAAAAAAAAAAAAAAAAAAAAAAAAAAAAAAAAAAAAAAAAAAAAAAAAAAAAAAAAAAAAAAAAAAAAAAAAAAAAAAAAAAAAAAAAAAAAAAAAAAAAAAAAAAAAAAAAAAAAAAAAAAAAAAAAAAAAAAAAAAAAAAAAAAAAAAAAAAAAAAAAAAAAAAAAAAAAAAAAAAAAAAAAAAAAAAAAAAAAAAAAAAAAAAAAAAAAAAAAAAAAAAAAAAAAAAAAAAAAAAAAAAAAAAAAAAAAAAAAAAAAAAAAAAAAAAAAAAAAAAAAAAAAAAAAAAAAAAAAAAAAAAAAAAAAAAAAAAAAAAAAAAAAAAAAAAAAAAAAAAAAAAAAAAAAAAAAAAAAAAAAAAAAAAAAAAAAAAAAAAAAAAAAAAAAAAAAAAAAAAAAAAAAAAAAAAAAAAAAAAAAAAAAAAAAAAAAAAAAAAAAAAAAAAAAAAAAAAAAAAAAAAAAAAAAAAAAAAAAAAAAAAAAAAAAAAAAAAAAAAAAAAAAAAAAAAAAAAAAAAAAAAAAAAAAAAAAAAAAAAAAAAAAAAAAAAAAAAAAAAAAAAAAAAAAAAAAAAAAAAAAAAAAAAAAAAAAAAAAAAAAAAAAAAAAAAAAAAAAAAAAAAAAAAAAAAAAAAAAAAAAAAAAAAAAAAAAAAAAAAAAAAAAAAAAAAAAAAAAAAAAAAAAAAAAAAAAAAAAAAAAAAAAAAAAAAAAAAAAAAAAAAAAAAAAAAAAAAAAAAAAAAAAAAAAAAAAAAAAAAAAAAAAAAAAAAAAAAAAAAAAAAAAAAAAAAAAAAAAAAAAAAAAAAAAAAAAAAAAAAAAAAAAAAAAAAAAAAAAAAAAAAAAAAAAAAAAAAAAAAAAAAAAAAAAAAAAAAAAAAAAAAAAAAAAAAAAAAAAAAAAAAAAAAAAAAAAAAAAAAAAAAAAAAAAAAAAAAAAAAAAAAAAAAAAAAAAAAAAAAAAAAAAAAAAAAAAAAAAAAAAAAAAAAAAAAAAAAAAAAAAAAAAAAAAAAAAAAAAAAAAAAAAAAAAAAAAAAAAAAAAAAAAAAAAAAAAAAAAAAAAAAAAAAAAAAAAAAAAAAAAAAAAAAAAAAAAAAAAAAAAAAAAAAAAAAAAAAAAAAAAAAAAAAAAAAAAAAAAAAAAAAAAAAAAAAAAAAAAAAAAAAAAAAAAAAAAAAAAAAAAAAAAAAAAAAAAAAAAAAAAAAAAAAAAAAAAAAAAAAAAAAAAAAAAAAAAAAAAAAAAAAAAAAAAAAAAAAAAAAAAAAAAAAAAAAAAAAAAAAAAAAAAAAAAAAAAAAAAAAAAAAAAAAAAAAAAAAAAAAAAAAAAAAAAAAAAAAAAAAAAAAAAAAAAAAAAAAAAAAAAAAAAAAAAAAAAAAAAAAAAAAAAAAAAAAAAAAAAAAAAAAAAAAAAAAAAAAAAAAAAAAAAAAAAAAAAAAAAAAAAAAAAAAAAAAAAAAAAAAAAAAAAAAAAAAAAAAAAAAAAAAAAAAAAAAAAAAAAAAAAAAAAAAAAAAAAAAAAAAAAAAAAAAAAAAAAAAAAAPZYQBcEk+uoFK13KvcobuY7kKEKg4Hatv9HP9YS0CwFzftLw6py7ndmOeAiRJCJZbqhzEkZKCIgmuUON+3h2Uamj2k=</c2pa:manifest></metadata><rect width="444" height="138" fill="#0F4AB3"/><g transform="translate(22.00 13.60) scale(0.8000)"><path d="M14 30 H40 L48 38 H86 V78 Q86 84 80 84 H20 Q14 84 14 78 Z" fill="none" stroke="#FFFFFF" stroke-width="9" stroke-linecap="round" stroke-linejoin="round"/><path d="M38 58 L48 68 L66 48" fill="none" stroke="#FFFFFF" stroke-width="10" stroke-linecap="round" stroke-linejoin="round"/></g><path d="M147.216 39.071999999999996V47.839999999999996H128.912V57.312H142.608V65.824H128.912V84.0H117.968V39.071999999999996Z M149.84 66.144Q149.84 60.64 152.272 56.448Q154.704 52.256 158.928 50.016Q163.15200000000002 47.775999999999996 168.4 47.775999999999996Q173.648 47.775999999999996 177.872 50.016Q182.096 52.256 184.52800000000002 56.448Q186.96 60.64 186.96 66.144Q186.96 71.648 184.496 75.84Q182.032 80.032 177.776 82.27199999999999Q173.52 84.512 168.272 84.512Q163.024 84.512 158.832 82.27199999999999Q154.64000000000001 80.032 152.24 75.872Q149.84 71.712 149.84 66.144ZM175.824 66.144Q175.824 61.855999999999995 173.68 59.552Q171.536 57.248000000000005 168.4 57.248000000000005Q165.2 57.248000000000005 163.088 59.52Q160.976 61.792 160.976 66.144Q160.976 70.432 163.05599999999998 72.73599999999999Q165.136 75.03999999999999 168.272 75.03999999999999Q171.40800000000002 75.03999999999999 173.616 72.73599999999999Q175.824 70.432 175.824 66.144Z M189.648 66.144Q189.648 60.64 192.07999999999998 56.448Q194.512 52.256 198.736 50.016Q202.96 47.775999999999996 208.208 47.775999999999996Q213.456 47.775999999999996 217.68 50.016Q221.904 52.256 224.336 56.448Q226.768 60.64 226.768 66.144Q226.768 71.648 224.304 75.84Q221.84 80.032 217.584 82.27199999999999Q213.328 84.512 208.07999999999998 84.512Q202.832 84.512 198.64 82.27199999999999Q194.448 80.032 192.048 75.872Q189.648 71.712 189.648 66.144ZM215.632 66.144Q215.632 61.855999999999995 213.488 59.552Q211.344 57.248000000000005 208.208 57.248000000000005Q205.00799999999998 57.248000000000005 202.896 59.52Q200.784 61.792 200.784 66.144Q200.784 70.432 202.86399999999998 72.73599999999999Q204.944 75.03999999999999 208.07999999999998 75.03999999999999Q211.216 75.03999999999999 213.424 72.73599999999999Q215.632 70.432 215.632 66.144Z M245.2 47.775999999999996Q248.72 47.775999999999996 251.632 49.248Q254.54399999999998 50.72 256.20799999999997 53.216V36.64H267.152V84.0H256.20799999999997V78.88Q254.672 81.44 251.824 82.976Q248.976 84.512 245.2 84.512Q240.784 84.512 237.2 82.24000000000001Q233.61599999999999 79.968 231.536 75.77600000000001Q229.456 71.584 229.456 66.08Q229.456 60.576 231.536 56.416Q233.61599999999999 52.256 237.2 50.016Q240.784 47.775999999999996 245.2 47.775999999999996ZM248.39999999999998 57.312Q245.136 57.312 242.86399999999998 59.647999999999996Q240.59199999999998 61.983999999999995 240.59199999999998 66.08Q240.59199999999998 70.176 242.86399999999998 72.576Q245.136 74.976 248.39999999999998 74.976Q251.664 74.976 253.93599999999998 72.608Q256.20799999999997 70.24 256.20799999999997 66.144Q256.20799999999997 62.048 253.93599999999998 59.68Q251.664 57.312 248.39999999999998 57.312Z" fill="#FFFFFF"/><path d="M304.336 39.071999999999996V47.839999999999996H286.032V57.312H299.728V65.824H286.032V84.0H275.088V39.071999999999996Z M306.96 66.144Q306.96 60.64 309.392 56.448Q311.824 52.256 316.048 50.016Q320.272 47.775999999999996 325.52 47.775999999999996Q330.76800000000003 47.775999999999996 334.992 50.016Q339.216 52.256 341.648 56.448Q344.08 60.64 344.08 66.144Q344.08 71.648 341.616 75.84Q339.152 80.032 334.89599999999996 82.27199999999999Q330.64 84.512 325.392 84.512Q320.144 84.512 315.952 82.27199999999999Q311.76 80.032 309.36 75.872Q306.96 71.712 306.96 66.144ZM332.944 66.144Q332.944 61.855999999999995 330.8 59.552Q328.656 57.248000000000005 325.52 57.248000000000005Q322.32 57.248000000000005 320.20799999999997 59.52Q318.096 61.792 318.096 66.144Q318.096 70.432 320.17600000000004 72.73599999999999Q322.25600000000003 75.03999999999999 325.392 75.03999999999999Q328.528 75.03999999999999 330.736 72.73599999999999Q332.944 70.432 332.944 66.144Z M359.888 36.64V84.0H348.944V36.64Z M365.84000000000003 38.688Q365.84000000000003 36.128 367.664 34.432Q369.488 32.736 372.368 32.736Q375.184 32.736 377.00800000000004 34.432Q378.832 36.128 378.832 38.688Q378.832 41.184 377.00800000000004 42.879999999999995Q375.184 44.576 372.368 44.576Q369.488 44.576 367.664 42.879999999999995Q365.84000000000003 41.184 365.84000000000003 38.688ZM377.808 48.288V84.0H366.86400000000003V48.288Z M382.608 66.144Q382.608 60.64 385.04 56.448Q387.47200000000004 52.256 391.696 50.016Q395.92 47.775999999999996 401.168 47.775999999999996Q406.41600000000005 47.775999999999996 410.64000000000004 50.016Q414.86400000000003 52.256 417.29600000000005 56.448Q419.728 60.64 419.728 66.144Q419.728 71.648 417.264 75.84Q414.8 80.032 410.544 82.27199999999999Q406.288 84.512 401.04 84.512Q395.79200000000003 84.512 391.6 82.27199999999999Q387.408 80.032 385.00800000000004 75.872Q382.608 71.712 382.608 66.144ZM408.59200000000004 66.144Q408.59200000000004 61.855999999999995 406.44800000000004 59.552Q404.30400000000003 57.248000000000005 401.168 57.248000000000005Q397.968 57.248000000000005 395.856 59.52Q393.744 61.792 393.744 66.144Q393.744 70.432 395.82400000000007 72.73599999999999Q397.90400000000005 75.03999999999999 401.04 75.03999999999999Q404.17600000000004 75.03999999999999 406.384 72.73599999999999Q408.59200000000004 70.432 408.59200000000004 66.144Z" fill="#FFFFFF"/><path d="M118.835 107.575V118.0H117.125V107.575Z M128.87 113.125V118.0H127.175V113.38Q127.175 112.27 126.62 111.6775Q126.065 111.085 125.105 111.085Q124.145 111.085 123.5825 111.6775Q123.02 112.27 123.02 113.38V118.0H121.31V109.735H123.02V110.68Q123.44 110.17 124.0925 109.88499999999999Q124.745 109.6 125.48 109.6Q126.455 109.6 127.22749999999999 110.005Q128.0 110.41 128.435 111.205Q128.87 112.0 128.87 113.125Z M134.615 109.6Q135.425 109.6 136.2125 109.9525Q137.0 110.305 137.465 110.89V106.9H139.19V118.0H137.465V116.755Q137.04500000000002 117.355 136.3025 117.745Q135.56 118.135 134.60000000000002 118.135Q133.52 118.135 132.6275 117.5875Q131.735 117.04 131.21750000000003 116.0575Q130.70000000000002 115.075 130.70000000000002 113.83Q130.70000000000002 112.585 131.21750000000003 111.625Q131.735 110.665 132.6275 110.1325Q133.52 109.6 134.615 109.6ZM134.96 111.085Q134.3 111.085 133.73000000000002 111.4075Q133.16 111.73 132.8075 112.35249999999999Q132.455 112.975 132.455 113.83Q132.455 114.685 132.8075 115.33Q133.16 115.975 133.7375 116.3125Q134.315 116.65 134.96 116.65Q135.62 116.65 136.19 116.32Q136.76000000000002 115.99 137.1125 115.35249999999999Q137.465 114.715 137.465 113.86Q137.465 113.005 137.1125 112.375Q136.76000000000002 111.745 136.19 111.41499999999999Q135.62 111.085 134.96 111.085Z M149.18 114.505H142.86499999999998Q142.94 115.495 143.6 116.095Q144.26 116.695 145.22 116.695Q146.6 116.695 147.17 115.54H149.015Q148.64 116.68 147.65749999999997 117.4075Q146.67499999999998 118.135 145.22 118.135Q144.035 118.135 143.0975 117.60249999999999Q142.16 117.07 141.6275 116.10249999999999Q141.095 115.135 141.095 113.86Q141.095 112.585 141.6125 111.6175Q142.13 110.65 143.0675 110.125Q144.005 109.6 145.22 109.6Q146.39 109.6 147.305 110.11Q148.22 110.62 148.73 111.5425Q149.23999999999998 112.465 149.23999999999998 113.665Q149.23999999999998 114.13 149.18 114.505ZM147.45499999999998 113.125Q147.44 112.18 146.78 111.61000000000001Q146.12 111.04 145.14499999999998 111.04Q144.26 111.04 143.63 111.6025Q143.0 112.165 142.88 113.125Z M155.73499999999999 109.6Q156.81499999999997 109.6 157.70749999999998 110.1325Q158.6 110.665 159.10999999999999 111.625Q159.61999999999998 112.585 159.61999999999998 113.83Q159.61999999999998 115.075 159.10999999999999 116.0575Q158.6 117.04 157.70749999999998 117.5875Q156.81499999999997 118.135 155.73499999999999 118.135Q154.79 118.135 154.055 117.7525Q153.32 117.37 152.855 116.8V121.93H151.14499999999998V109.735H152.855V110.95Q153.29 110.38 154.04 109.99Q154.79 109.6 155.73499999999999 109.6ZM155.35999999999999 111.085Q154.71499999999997 111.085 154.1375 111.41499999999999Q153.55999999999997 111.745 153.20749999999998 112.375Q152.855 113.005 152.855 113.86Q152.855 114.715 153.20749999999998 115.35249999999999Q153.55999999999997 115.99 154.1375 116.32Q154.71499999999997 116.65 155.35999999999999 116.65Q156.01999999999998 116.65 156.59749999999997 116.3125Q157.17499999999998 115.975 157.52749999999997 115.33Q157.88 114.685 157.88 113.83Q157.88 112.975 157.52749999999997 112.35249999999999Q157.17499999999998 111.73 156.59749999999997 111.4075Q156.01999999999998 111.085 155.35999999999999 111.085Z M169.055 114.505H162.73999999999998Q162.815 115.495 163.475 116.095Q164.135 116.695 165.095 116.695Q166.475 116.695 167.045 115.54H168.89Q168.515 116.68 167.53249999999997 117.4075Q166.54999999999998 118.135 165.095 118.135Q163.91 118.135 162.9725 117.60249999999999Q162.035 117.07 161.5025 116.10249999999999Q160.97 115.135 160.97 113.86Q160.97 112.585 161.4875 111.6175Q162.005 110.65 162.9425 110.125Q163.88 109.6 165.095 109.6Q166.265 109.6 167.18 110.11Q168.095 110.62 168.605 111.5425Q169.11499999999998 112.465 169.11499999999998 113.665Q169.11499999999998 114.13 169.055 114.505ZM167.32999999999998 113.125Q167.315 112.18 166.655 111.61000000000001Q165.995 111.04 165.01999999999998 111.04Q164.135 111.04 163.505 111.6025Q162.875 112.165 162.755 113.125Z M178.57999999999998 113.125V118.0H176.885V113.38Q176.885 112.27 176.32999999999998 111.6775Q175.77499999999998 111.085 174.81499999999997 111.085Q173.855 111.085 173.2925 111.6775Q172.73 112.27 172.73 113.38V118.0H171.01999999999998V109.735H172.73V110.68Q173.14999999999998 110.17 173.80249999999998 109.88499999999999Q174.45499999999998 109.6 175.18999999999997 109.6Q176.165 109.6 176.9375 110.005Q177.70999999999998 110.41 178.14499999999998 111.205Q178.57999999999998 112.0 178.57999999999998 113.125Z M184.325 109.6Q185.135 109.6 185.92249999999999 109.9525Q186.70999999999998 110.305 187.17499999999998 110.89V106.9H188.89999999999998V118.0H187.17499999999998V116.755Q186.755 117.355 186.0125 117.745Q185.26999999999998 118.135 184.31 118.135Q183.23 118.135 182.33749999999998 117.5875Q181.445 117.04 180.9275 116.0575Q180.41 115.075 180.41 113.83Q180.41 112.585 180.9275 111.625Q181.445 110.665 182.33749999999998 110.1325Q183.23 109.6 184.325 109.6ZM184.67 111.085Q184.01 111.085 183.44 111.4075Q182.86999999999998 111.73 182.51749999999998 112.35249999999999Q182.165 112.975 182.165 113.83Q182.165 114.685 182.51749999999998 115.33Q182.86999999999998 115.975 183.4475 116.3125Q184.02499999999998 116.65 184.67 116.65Q185.32999999999998 116.65 185.89999999999998 116.32Q186.47 115.99 186.8225 115.35249999999999Q187.17499999999998 114.715 187.17499999999998 113.86Q187.17499999999998 113.005 186.8225 112.375Q186.47 111.745 185.89999999999998 111.41499999999999Q185.32999999999998 111.085 184.67 111.085Z M198.89 114.505H192.575Q192.65 115.495 193.31 116.095Q193.97 116.695 194.93 116.695Q196.31 116.695 196.88 115.54H198.725Q198.35 116.68 197.3675 117.4075Q196.385 118.135 194.93 118.135Q193.745 118.135 192.8075 117.60249999999999Q191.87 117.07 191.3375 116.10249999999999Q190.805 115.135 190.805 113.86Q190.805 112.585 191.3225 111.6175Q191.84 110.65 192.7775 110.125Q193.715 109.6 194.93 109.6Q196.1 109.6 197.015 110.11Q197.93 110.62 198.44 111.5425Q198.95 112.465 198.95 113.665Q198.95 114.13 198.89 114.505ZM197.165 113.125Q197.15 112.18 196.49 111.61000000000001Q195.83 111.04 194.855 111.04Q193.97 111.04 193.34 111.6025Q192.71 112.165 192.59 113.125Z M208.415 113.125V118.0H206.72V113.38Q206.72 112.27 206.165 111.6775Q205.60999999999999 111.085 204.64999999999998 111.085Q203.69 111.085 203.1275 111.6775Q202.565 112.27 202.565 113.38V118.0H200.855V109.735H202.565V110.68Q202.98499999999999 110.17 203.6375 109.88499999999999Q204.29 109.6 205.02499999999998 109.6Q206.0 109.6 206.77249999999998 110.005Q207.545 110.41 207.98 111.205Q208.415 112.0 208.415 113.125Z M212.81 111.13V115.705Q212.81 116.17 213.0275 116.3725Q213.245 116.575 213.77 116.575H214.82V118.0H213.47Q212.315 118.0 211.7 117.46000000000001Q211.085 116.92 211.085 115.705V111.13H210.10999999999999V109.735H211.085V107.68H212.81V109.735H214.82V111.13Z M224.015 113.875 227.825 118.0H225.515L222.45499999999998 114.445V118.0H220.74499999999998V106.9H222.45499999999998V113.35L225.45499999999998 109.735H227.825Z M229.05499999999998 107.545Q229.05499999999998 107.08 229.36999999999998 106.765Q229.68499999999997 106.45 230.14999999999998 106.45Q230.59999999999997 106.45 230.91499999999996 106.765Q231.22999999999996 107.08 231.22999999999996 107.545Q231.22999999999996 108.01 230.91499999999996 108.325Q230.59999999999997 108.64 230.14999999999998 108.64Q229.68499999999997 108.64 229.36999999999998 108.325Q229.05499999999998 108.01 229.05499999999998 107.545ZM230.98999999999998 109.735V118.0H229.27999999999997V109.735Z M235.45999999999998 111.13V115.705Q235.45999999999998 116.17 235.67749999999998 116.3725Q235.89499999999998 116.575 236.42 116.575H237.46999999999997V118.0H236.11999999999998Q234.96499999999997 118.0 234.34999999999997 117.46000000000001Q233.73499999999999 116.92 233.73499999999999 115.705V111.13H232.75999999999996V109.735H233.73499999999999V107.68H235.45999999999998V109.735H237.46999999999997V111.13Z M242.74999999999997 109.6Q244.24999999999997 109.6 245.23249999999996 110.3125Q246.21499999999997 111.025 246.55999999999997 112.345H244.71499999999997Q244.48999999999998 111.73 243.99499999999998 111.385Q243.49999999999997 111.04 242.74999999999997 111.04Q241.7 111.04 241.0775 111.7825Q240.45499999999998 112.525 240.45499999999998 113.86Q240.45499999999998 115.195 241.0775 115.945Q241.7 116.695 242.74999999999997 116.695Q244.23499999999999 116.695 244.71499999999997 115.39H246.55999999999997Q246.2 116.65 245.20999999999998 117.39250000000001Q244.21999999999997 118.135 242.74999999999997 118.135Q241.56499999999997 118.135 240.64999999999998 117.60249999999999Q239.73499999999999 117.07 239.21749999999997 116.10249999999999Q238.7 115.135 238.7 113.86Q238.7 112.585 239.21749999999997 111.6175Q239.73499999999999 110.65 240.64999999999998 110.125Q241.56499999999997 109.6 242.74999999999997 109.6Z M256.05499999999995 113.125V118.0H254.35999999999999V113.38Q254.35999999999999 112.27 253.80499999999998 111.6775Q253.24999999999997 111.085 252.28999999999996 111.085Q251.32999999999998 111.085 250.76749999999998 111.6775Q250.20499999999998 112.27 250.20499999999998 113.38V118.0H248.49499999999998V106.9H250.20499999999998V110.695Q250.64 110.17 251.30749999999998 109.88499999999999Q251.97499999999997 109.6 252.76999999999998 109.6Q253.71499999999997 109.6 254.45749999999998 110.005Q255.2 110.41 255.62749999999997 111.205Q256.05499999999995 112.0 256.05499999999995 113.125Z M265.96999999999997 114.505H259.655Q259.72999999999996 115.495 260.39 116.095Q261.05 116.695 262.01 116.695Q263.39 116.695 263.96 115.54H265.805Q265.43 116.68 264.4475 117.4075Q263.465 118.135 262.01 118.135Q260.825 118.135 259.8875 117.60249999999999Q258.95 117.07 258.4175 116.10249999999999Q257.885 115.135 257.885 113.86Q257.885 112.585 258.4025 111.6175Q258.91999999999996 110.65 259.85749999999996 110.125Q260.79499999999996 109.6 262.01 109.6Q263.18 109.6 264.095 110.11Q265.01 110.62 265.52 111.5425Q266.03 112.465 266.03 113.665Q266.03 114.13 265.96999999999997 114.505ZM264.245 113.125Q264.22999999999996 112.18 263.56999999999994 111.61000000000001Q262.90999999999997 111.04 261.935 111.04Q261.05 111.04 260.41999999999996 111.6025Q259.78999999999996 112.165 259.66999999999996 113.125Z M275.49499999999995 113.125V118.0H273.79999999999995V113.38Q273.79999999999995 112.27 273.24499999999995 111.6775Q272.68999999999994 111.085 271.72999999999996 111.085Q270.7699999999999 111.085 270.2074999999999 111.6775Q269.6449999999999 112.27 269.6449999999999 113.38V118.0H267.93499999999995V109.735H269.6449999999999V110.68Q270.06499999999994 110.17 270.7175 109.88499999999999Q271.36999999999995 109.6 272.10499999999996 109.6Q273.0799999999999 109.6 273.85249999999996 110.005Q274.62499999999994 110.41 275.05999999999995 111.205Q275.49499999999995 112.0 275.49499999999995 113.125Z M285.34999999999997 109.6Q286.325 109.6 287.0525 109.98249999999999Q287.78 110.365 288.215 110.935V109.735H289.94V118.0H288.215V116.77Q287.78 117.355 287.03 117.745Q286.28 118.135 285.32 118.135Q284.255 118.135 283.37 117.5875Q282.48499999999996 117.04 281.9675 116.0575Q281.45 115.075 281.45 113.83Q281.45 112.585 281.9675 111.625Q282.48499999999996 110.665 283.37749999999994 110.1325Q284.27 109.6 285.34999999999997 109.6ZM285.71 111.085Q285.04999999999995 111.085 284.47999999999996 111.4075Q283.90999999999997 111.73 283.5575 112.35249999999999Q283.205 112.975 283.205 113.83Q283.205 114.685 283.5575 115.33Q283.90999999999997 115.975 284.48749999999995 116.3125Q285.065 116.65 285.71 116.65Q286.37 116.65 286.94 116.32Q287.51 115.99 287.86249999999995 115.35249999999999Q288.215 114.715 288.215 113.86Q288.215 113.005 287.86249999999995 112.375Q287.51 111.745 286.94 111.41499999999999Q286.37 111.085 285.71 111.085Z M299.9 109.735V118.0H298.18999999999994V117.025Q297.78499999999997 117.535 297.13249999999994 117.8275Q296.47999999999996 118.12 295.74499999999995 118.12Q294.77 118.12 293.99749999999995 117.715Q293.22499999999997 117.31 292.78249999999997 116.515Q292.34 115.72 292.34 114.595V109.735H294.03499999999997V114.34Q294.03499999999997 115.45 294.59 116.0425Q295.145 116.635 296.10499999999996 116.635Q297.06499999999994 116.635 297.62749999999994 116.0425Q298.18999999999994 115.45 298.18999999999994 114.34V109.735Z M305.72 109.6Q306.53 109.6 307.3175 109.9525Q308.105 110.305 308.57 110.89V106.9H310.295V118.0H308.57V116.755Q308.15 117.355 307.4075 117.745Q306.665 118.135 305.705 118.135Q304.625 118.135 303.73249999999996 117.5875Q302.84 117.04 302.3225 116.0575Q301.805 115.075 301.805 113.83Q301.805 112.585 302.3225 111.625Q302.84 110.665 303.73249999999996 110.1325Q304.625 109.6 305.72 109.6ZM306.065 111.085Q305.405 111.085 304.835 111.4075Q304.265 111.73 303.9125 112.35249999999999Q303.56 112.975 303.56 113.83Q303.56 114.685 303.9125 115.33Q304.265 115.975 304.8425 116.3125Q305.42 116.65 306.065 116.65Q306.725 116.65 307.295 116.32Q307.865 115.99 308.2175 115.35249999999999Q308.57 114.715 308.57 113.86Q308.57 113.005 308.2175 112.375Q307.865 111.745 307.295 111.41499999999999Q306.725 111.085 306.065 111.085Z M312.54499999999996 107.545Q312.54499999999996 107.08 312.85999999999996 106.765Q313.17499999999995 106.45 313.64 106.45Q314.09 106.45 314.405 106.765Q314.71999999999997 107.08 314.71999999999997 107.545Q314.71999999999997 108.01 314.405 108.325Q314.09 108.64 313.64 108.64Q313.17499999999995 108.64 312.85999999999996 108.325Q312.54499999999996 108.01 312.54499999999996 107.545ZM314.47999999999996 109.735V118.0H312.77V109.735Z M318.95000000000005 111.13V115.705Q318.95000000000005 116.17 319.1675 116.3725Q319.38500000000005 116.575 319.91 116.575H320.96000000000004V118.0H319.61Q318.45500000000004 118.0 317.84000000000003 117.46000000000001Q317.225 116.92 317.225 115.705V111.13H316.25000000000006V109.735H317.225V107.68H318.95000000000005V109.735H320.96000000000004V111.13Z M322.31 115.465H324.08Q324.125 115.99 324.5825 116.3425Q325.03999999999996 116.695 325.73 116.695Q326.45 116.695 326.84749999999997 116.41749999999999Q327.245 116.14 327.245 115.705Q327.245 115.24 326.8025 115.015Q326.36 114.79 325.4 114.52Q324.46999999999997 114.265 323.885 114.025Q323.3 113.785 322.8725 113.28999999999999Q322.445 112.795 322.445 111.985Q322.445 111.325 322.835 110.7775Q323.22499999999997 110.23 323.9525 109.91499999999999Q324.68 109.6 325.625 109.6Q327.03499999999997 109.6 327.8975 110.3125Q328.76 111.025 328.82 112.255H327.11Q327.065 111.7 326.65999999999997 111.37Q326.255 111.04 325.565 111.04Q324.89 111.04 324.53 111.295Q324.17 111.55 324.17 111.97Q324.17 112.3 324.40999999999997 112.525Q324.65 112.75 324.995 112.8775Q325.34 113.005 326.015 113.2Q326.91499999999996 113.44 327.49249999999995 113.6875Q328.07 113.935 328.49 114.41499999999999Q328.90999999999997 114.895 328.925 115.69Q328.925 116.395 328.53499999999997 116.94999999999999Q328.145 117.505 327.4325 117.82Q326.71999999999997 118.135 325.76 118.135Q324.78499999999997 118.135 324.0125 117.7825Q323.24 117.43 322.78999999999996 116.8225Q322.34 116.215 322.31 115.465Z M332.87 115.945 331.055 120.085H329.945L331.01 115.945Z M347.66 112.825Q347.66 114.415 346.9775 115.58500000000001Q346.295 116.755 345.0425 117.3775Q343.79 118.0 342.125 118.0H338.72V107.575H342.125Q343.79 107.575 345.0425 108.2125Q346.295 108.85 346.9775 110.04249999999999Q347.66 111.235 347.66 112.825ZM345.90500000000003 112.825Q345.90500000000003 111.01 344.93000000000006 109.99000000000001Q343.95500000000004 108.97 342.125 108.97H340.43V116.605H342.125Q343.95500000000004 116.605 344.93000000000006 115.61500000000001Q345.90500000000003 114.625 345.90500000000003 112.825Z M357.065 109.735V118.0H355.35499999999996V117.025Q354.95 117.535 354.2975 117.8275Q353.645 118.12 352.90999999999997 118.12Q351.935 118.12 351.1625 117.715Q350.39 117.31 349.9475 116.515Q349.505 115.72 349.505 114.595V109.735H351.2V114.34Q351.2 115.45 351.755 116.0425Q352.31 116.635 353.27 116.635Q354.22999999999996 116.635 354.79249999999996 116.0425Q355.35499999999996 115.45 355.35499999999996 114.34V109.735Z M364.12999999999994 109.6Q365.22499999999997 109.6 366.10999999999996 110.125Q366.99499999999995 110.65 367.505 111.6175Q368.015 112.585 368.015 113.83Q368.015 115.075 367.505 116.0575Q366.99499999999995 117.04 366.10249999999996 117.5875Q365.21 118.135 364.12999999999994 118.135Q363.16999999999996 118.135 362.42749999999995 117.76Q361.68499999999995 117.385 361.24999999999994 116.8V118.0H359.53999999999996V106.9H361.24999999999994V110.965Q361.68499999999995 110.365 362.4425 109.98249999999999Q363.2 109.6 364.12999999999994 109.6ZM363.75499999999994 111.085Q363.10999999999996 111.085 362.53249999999997 111.41499999999999Q361.955 111.745 361.60249999999996 112.375Q361.24999999999994 113.005 361.24999999999994 113.86Q361.24999999999994 114.715 361.60249999999996 115.35249999999999Q361.955 115.99 362.53249999999997 116.32Q363.10999999999996 116.65 363.75499999999994 116.65Q364.41499999999996 116.65 364.99249999999995 116.3125Q365.56999999999994 115.975 365.92249999999996 115.33Q366.275 114.685 366.275 113.83Q366.275 112.975 365.92249999999996 112.35249999999999Q365.56999999999994 111.73 364.99249999999995 111.4075Q364.41499999999996 111.085 363.75499999999994 111.085Z M371.645 106.9V118.0H369.935V106.9Z M373.895 107.545Q373.895 107.08 374.21 106.765Q374.525 106.45 374.99 106.45Q375.44 106.45 375.755 106.765Q376.07 107.08 376.07 107.545Q376.07 108.01 375.755 108.325Q375.44 108.64 374.99 108.64Q374.525 108.64 374.21 108.325Q373.895 108.01 373.895 107.545ZM375.83 109.735V118.0H374.12V109.735Z M385.865 113.125V118.0H384.17V113.38Q384.17 112.27 383.615 111.6775Q383.06 111.085 382.1 111.085Q381.14 111.085 380.5775 111.6775Q380.015 112.27 380.015 113.38V118.0H378.305V109.735H380.015V110.68Q380.435 110.17 381.0875 109.88499999999999Q381.74 109.6 382.475 109.6Q383.45 109.6 384.22249999999997 110.005Q384.995 110.41 385.43 111.205Q385.865 112.0 385.865 113.125Z" fill="#C9D6EA"/></svg>